<svg viewBox="0 0 50 50" fill="none" xmlns="http://www.w3.org/2000/svg">
    <path d="M10.4167 31.25C12.7179 31.25 14.5833 29.3845 14.5833 27.0833C14.5833 24.7821 12.7179 22.9166 10.4167 22.9166C8.11548 22.9166 6.25 24.7821 6.25 27.0833C6.25 29.3845 8.11548 31.25 10.4167 31.25Z"
          fill="#FFA726"/>
    <path d="M39.5833 31.25C41.8845 31.25 43.75 29.3845 43.75 27.0833C43.75 24.7821 41.8845 22.9166 39.5833 22.9166C37.2821 22.9166 35.4166 24.7821 35.4166 27.0833C35.4166 29.3845 37.2821 31.25 39.5833 31.25Z"
          fill="#FFA726"/>
    <path d="M40.625 19.7916C40.625 6.56247 9.375 11.1458 9.375 19.7916C9.375 21.6666 9.375 28.3333 9.375 30.2083C9.375 38.8541 16.3542 45.8333 25 45.8333C33.6458 45.8333 40.625 38.8541 40.625 30.2083C40.625 28.3333 40.625 21.6666 40.625 19.7916Z"
          fill="#FFB74D"/>
    <path d="M25 3.125C15.2083 3.125 7.29163 11.0417 7.29163 20.8333C7.29163 22.0833 7.29163 24.375 7.29163 24.375L9.37496 26.0417V22.9167L31.25 12.7083L40.625 22.9167V26.0417L42.7083 24.375C42.7083 24.375 42.7083 22.1875 42.7083 20.8333C42.7083 12.5 36.7708 3.125 25 3.125Z"
          fill="#FF5722"/>
    <path d="M32.2917 29.1667C33.4423 29.1667 34.375 28.2339 34.375 27.0833C34.375 25.9327 33.4423 25 32.2917 25C31.1411 25 30.2084 25.9327 30.2084 27.0833C30.2084 28.2339 31.1411 29.1667 32.2917 29.1667Z"
          fill="#784719"/>
    <path d="M17.7083 29.1667C18.8589 29.1667 19.7917 28.2339 19.7917 27.0833C19.7917 25.9327 18.8589 25 17.7083 25C16.5577 25 15.625 25.9327 15.625 27.0833C15.625 28.2339 16.5577 29.1667 17.7083 29.1667Z"
          fill="#784719"/>
    <path d="M44.7917 25C44.1667 25 43.75 25.4167 43.75 26.0417V18.75C43.75 9.58337 36.25 2.08337 27.0833 2.08337H19.7917C19.1667 2.08337 18.75 2.50004 18.75 3.12504C18.75 3.75004 19.1667 4.16671 19.7917 4.16671H27.0833C35.1042 4.16671 41.6667 10.7292 41.6667 18.75V29.1667C41.6667 29.7917 42.0833 30.2084 42.7083 30.2084C43.3333 30.2084 43.75 29.7917 43.75 29.1667V31.25C43.75 35.3125 40.5208 38.5417 36.4583 38.5417H25C24.375 38.5417 23.9583 38.9584 23.9583 39.5834C23.9583 40.2084 24.375 40.625 25 40.625H36.4583C41.6667 40.625 45.8333 36.4584 45.8333 31.25V26.0417C45.8333 25.4167 45.4167 25 44.7917 25Z"
          fill="#757575"/>
    <path d="M44.7916 22.9166H43.75C42.6041 22.9166 41.6666 23.8541 41.6666 25V29.1666C41.6666 30.3125 42.6041 31.25 43.75 31.25H44.7916C45.9375 31.25 46.875 30.3125 46.875 29.1666V25C46.875 23.8541 45.9375 22.9166 44.7916 22.9166Z"
          fill="#37474F"/>
    <path d="M25 41.6667C26.1506 41.6667 27.0833 40.7339 27.0833 39.5833C27.0833 38.4327 26.1506 37.5 25 37.5C23.8494 37.5 22.9166 38.4327 22.9166 39.5833C22.9166 40.7339 23.8494 41.6667 25 41.6667Z"
          fill="#37474F"/>
</svg>
