<svg width="902" height="248" viewBox="0 0 902 248" fill="none" xmlns="http://www.w3.org/2000/svg">
<path d="M652.144 196.083H524.86V147.922L607.423 3.4375H676.225L593.662 147.922H652.144V96.3201H714.066V147.922H738.146V196.083H714.066V244.244H652.144V196.083Z" fill="url(#paint0_linear_1_1117)"/>
<path fill-rule="evenodd" clip-rule="evenodd" d="M466.717 48.1613C480.477 48.1613 487.357 55.0415 487.357 68.8019V178.885C487.357 192.645 480.477 199.526 466.717 199.526H428.876C415.115 199.526 408.235 192.645 408.235 178.885V68.8019C408.235 55.0415 415.115 48.1613 428.876 48.1613H466.717ZM532.767 231.518C543.775 220.51 549.279 202.966 549.279 178.885V112.325L527.987 149.585V196.086H515.478V147.924V146.263L516.302 144.821L549.279 87.1111V68.8019C549.279 44.7213 543.775 27.2914 532.767 16.5125C521.988 5.50415 504.558 0 480.477 0H415.115C391.035 0 373.49 5.50415 362.482 16.5125C351.703 27.2914 346.313 44.7213 346.313 68.8019V178.885C346.313 202.966 351.703 220.51 362.482 231.518C373.49 242.297 391.035 247.687 415.115 247.687H480.477C504.558 247.687 521.988 242.297 532.767 231.518Z" fill="url(#paint1_linear_1_1117)"/>
<path d="M333.804 178.882C333.804 204.155 339.343 225.403 353.06 239.767V244.244H291.138V196.083H163.854V147.922L246.417 3.4375H315.219L232.656 147.922H291.138V96.3201H333.804V178.882Z" fill="url(#paint2_linear_1_1117)"/>
<rect x="347" y="42.1035" width="202.511" height="37.7528" rx="3" fill="url(#paint3_linear_1_1117)"/>
<path d="M396.589 68.24V51.44H407.197V53.408H398.989V58.784H406.477V60.704H398.989V66.272H407.197V68.24H396.589ZM418.3 68.24V51.44H423.988C425.316 51.44 426.404 51.664 427.252 52.112C428.1 52.56 428.724 53.16 429.124 53.912C429.54 54.648 429.748 55.488 429.748 56.432C429.748 57.328 429.54 58.16 429.124 58.928C428.724 59.68 428.092 60.288 427.228 60.752C426.364 61.2 425.26 61.424 423.916 61.424H420.7V68.24H418.3ZM427.132 68.24L423.508 60.776H426.148L429.916 68.24H427.132ZM420.7 59.6H423.82C425.004 59.6 425.876 59.312 426.436 58.736C426.996 58.144 427.276 57.392 427.276 56.48C427.276 55.552 427.004 54.816 426.46 54.272C425.916 53.728 425.036 53.456 423.82 53.456H420.7V59.6ZM440.855 68.24V51.44H446.543C447.871 51.44 448.959 51.664 449.807 52.112C450.655 52.56 451.279 53.16 451.679 53.912C452.095 54.648 452.303 55.488 452.303 56.432C452.303 57.328 452.095 58.16 451.679 58.928C451.279 59.68 450.647 60.288 449.783 60.752C448.919 61.2 447.815 61.424 446.471 61.424H443.255V68.24H440.855ZM449.687 68.24L446.063 60.776H448.703L452.471 68.24H449.687ZM443.255 59.6H446.375C447.559 59.6 448.431 59.312 448.991 58.736C449.551 58.144 449.831 57.392 449.831 56.48C449.831 55.552 449.559 54.816 449.015 54.272C448.471 53.728 447.591 53.456 446.375 53.456H443.255V59.6ZM470.969 68.528C469.353 68.528 467.929 68.168 466.697 67.448C465.481 66.712 464.521 65.696 463.817 64.4C463.129 63.088 462.785 61.568 462.785 59.84C462.785 58.128 463.129 56.624 463.817 55.328C464.521 54.016 465.481 52.992 466.697 52.256C467.929 51.52 469.353 51.152 470.969 51.152C472.617 51.152 474.057 51.52 475.289 52.256C476.521 52.992 477.473 54.016 478.145 55.328C478.833 56.624 479.177 58.128 479.177 59.84C479.177 61.568 478.833 63.088 478.145 64.4C477.473 65.696 476.521 66.712 475.289 67.448C474.057 68.168 472.617 68.528 470.969 68.528ZM470.993 66.392C472.145 66.392 473.153 66.128 474.017 65.6C474.881 65.072 475.545 64.32 476.009 63.344C476.489 62.368 476.729 61.2 476.729 59.84C476.729 58.48 476.489 57.312 476.009 56.336C475.545 55.36 474.881 54.616 474.017 54.104C473.153 53.576 472.145 53.312 470.993 53.312C469.841 53.312 468.833 53.576 467.969 54.104C467.105 54.616 466.433 55.36 465.953 56.336C465.473 57.312 465.233 58.48 465.233 59.84C465.233 61.2 465.473 62.368 465.953 63.344C466.433 64.32 467.105 65.072 467.969 65.6C468.833 66.128 469.841 66.392 470.993 66.392ZM490.066 68.24V51.44H495.754C497.082 51.44 498.17 51.664 499.018 52.112C499.866 52.56 500.49 53.16 500.89 53.912C501.306 54.648 501.514 55.488 501.514 56.432C501.514 57.328 501.306 58.16 500.89 58.928C500.49 59.68 499.858 60.288 498.994 60.752C498.13 61.2 497.026 61.424 495.682 61.424H492.466V68.24H490.066ZM498.898 68.24L495.274 60.776H497.914L501.682 68.24H498.898ZM492.466 59.6H495.586C496.77 59.6 497.642 59.312 498.202 58.736C498.762 58.144 499.042 57.392 499.042 56.48C499.042 55.552 498.77 54.816 498.226 54.272C497.682 53.728 496.802 53.456 495.586 53.456H492.466V59.6Z" fill="white"/>
<defs>
<linearGradient id="paint0_linear_1_1117" x1="524.877" y1="123.861" x2="738.163" y2="123.861" gradientUnits="userSpaceOnUse">
<stop stop-color="#3B82F6"/>
<stop offset="1" stop-color="#2563EB"/>
</linearGradient>
<linearGradient id="paint1_linear_1_1117" x1="346.329" y1="123.864" x2="549.295" y2="123.864" gradientUnits="userSpaceOnUse">
<stop stop-color="#3B82F6"/>
<stop offset="1" stop-color="#2563EB"/>
</linearGradient>
<linearGradient id="paint2_linear_1_1117" x1="163.869" y1="123.861" x2="353.074" y2="123.861" gradientUnits="userSpaceOnUse">
<stop stop-color="#3B82F6"/>
<stop offset="1" stop-color="#2563EB"/>
</linearGradient>
<linearGradient id="paint3_linear_1_1117" x1="347.016" y1="60.983" x2="549.527" y2="60.983" gradientUnits="userSpaceOnUse">
<stop stop-color="#3B82F6"/>
<stop offset="1" stop-color="#2563EB"/>
</linearGradient>
</defs>
</svg>
