<svg width="58" height="58" viewBox="0 0 58 58" fill="none" xmlns="http://www.w3.org/2000/svg">
<g filter="url(#filter0_d_1_1165)">
<rect x="4" y="2" width="50" height="50" rx="8" fill="url(#paint0_linear_1_1165)"/>
<rect x="4" y="2" width="50" height="50" rx="8" fill="url(#paint1_linear_1_1165)"/>
<rect x="4.5" y="2.5" width="49" height="49" rx="7.5" stroke="url(#paint2_linear_1_1165)" stroke-linecap="round"/>
<path d="M28.9999 43.6667C38.2047 43.6667 45.6666 36.2048 45.6666 27C45.6666 17.7953 38.2047 10.3334 28.9999 10.3334C19.7952 10.3334 12.3333 17.7953 12.3333 27C12.3333 36.2048 19.7952 43.6667 28.9999 43.6667Z" stroke="white" stroke-width="2.5" stroke-linecap="round"/>
<path d="M22.1355 33.2599C22.9566 33.9711 24.0386 34.4849 25.2045 34.8214C26.3836 35.1617 27.6904 35.3334 29.0001 35.3334C30.3098 35.3334 31.6166 35.1617 32.7958 34.8214C33.9616 34.4849 35.0436 33.9711 35.8648 33.2599" stroke="white" stroke-width="2.5" stroke-linecap="round"/>
<path d="M24.0001 25.75C25.1507 25.75 26.0834 24.8173 26.0834 23.6667C26.0834 22.5161 25.1507 21.5834 24.0001 21.5834C22.8495 21.5834 21.9167 22.5161 21.9167 23.6667C21.9167 24.8173 22.8495 25.75 24.0001 25.75Z" fill="white" stroke="white" stroke-width="2.5" stroke-linecap="round"/>
<path d="M34.0001 25.75C35.1507 25.75 36.0834 24.8173 36.0834 23.6667C36.0834 22.5161 35.1507 21.5834 34.0001 21.5834C32.8495 21.5834 31.9167 22.5161 31.9167 23.6667C31.9167 24.8173 32.8495 25.75 34.0001 25.75Z" fill="white" stroke="white" stroke-width="2.5" stroke-linecap="round"/>
</g>
<defs>
<filter id="filter0_d_1_1165" x="0" y="0" width="58" height="58" filterUnits="userSpaceOnUse" color-interpolation-filters="sRGB">
<feFlood flood-opacity="0" result="BackgroundImageFix"/>
<feColorMatrix in="SourceAlpha" type="matrix" values="0 0 0 0 0 0 0 0 0 0 0 0 0 0 0 0 0 0 127 0" result="hardAlpha"/>
<feOffset dy="2"/>
<feGaussianBlur stdDeviation="2"/>
<feComposite in2="hardAlpha" operator="out"/>
<feColorMatrix type="matrix" values="0 0 0 0 0.054902 0 0 0 0 0.0705882 0 0 0 0 0.105882 0 0 0 0.5 0"/>
<feBlend mode="normal" in2="BackgroundImageFix" result="effect1_dropShadow_1_1165"/>
<feBlend mode="normal" in="SourceGraphic" in2="effect1_dropShadow_1_1165" result="shape"/>
</filter>
<linearGradient id="paint0_linear_1_1165" x1="29" y1="2" x2="29" y2="52" gradientUnits="userSpaceOnUse">
<stop stop-color="#232323"/>
<stop offset="1"/>
</linearGradient>
<linearGradient id="paint1_linear_1_1165" x1="4.00388" y1="27.0041" x2="54.0039" y2="27.0041" gradientUnits="userSpaceOnUse">
<stop stop-color="#3B82F6"/>
<stop offset="1" stop-color="#2563EB"/>
</linearGradient>
<linearGradient id="paint2_linear_1_1165" x1="29" y1="2" x2="29" y2="52" gradientUnits="userSpaceOnUse">
<stop stop-color="#3E6FF3"/>
<stop offset="1" stop-color="#3E6FF3" stop-opacity="0"/>
</linearGradient>
</defs>
</svg>
