<svg width="58" height="60" viewBox="0 0 58 60" fill="none" xmlns="http://www.w3.org/2000/svg">
    <g filter="url(#filter0_d_1_1151)">
        <rect x="4" y="2" width="50" height="52" rx="8" fill="url(#paint0_linear_1_1151)"/>
        <rect x="4" y="2" width="50" height="52" rx="8" fill="url(#paint1_linear_1_1151)"/>
        <rect x="4.5" y="2.5" width="49" height="51" rx="7.5" stroke="url(#paint2_linear_1_1151)"
              stroke-linecap="round"/>
        <path d="M15.6667 43C15.6667 37.1225 20.0129 32.2602 25.6667 31.4515M42.1211 33.3397C42.0074 33.3465 41.8929 33.35 41.7779 33.35C40.0704 33.35 38.5129 32.5873 37.3334 31.3333C36.1539 32.5873 34.5964 33.3498 32.8889 33.3498C32.7739 33.3498 32.6594 33.3463 32.5457 33.3395C32.4071 33.9755 32.3334 34.6425 32.3334 35.3298C32.3334 39.0202 34.4581 42.1208 37.3334 43C40.2087 42.1208 42.3334 39.0202 42.3334 35.3298C42.3334 34.6425 42.2597 33.9755 42.1211 33.3397ZM34.0001 19.6667C34.0001 23.3486 31.0152 26.3333 27.3334 26.3333C23.6515 26.3333 20.6667 23.3486 20.6667 19.6667C20.6667 15.9848 23.6515 13 27.3334 13C31.0152 13 34.0001 15.9848 34.0001 19.6667Z"
              stroke="white" stroke-width="2.5" stroke-linecap="round" stroke-linejoin="round"/>
    </g>
    <defs>
        <filter id="filter0_d_1_1151" x="0" y="0" width="58" height="60" filterUnits="userSpaceOnUse"
                color-interpolation-filters="sRGB">
            <feFlood flood-opacity="0" result="BackgroundImageFix"/>
            <feColorMatrix in="SourceAlpha" type="matrix" values="0 0 0 0 0 0 0 0 0 0 0 0 0 0 0 0 0 0 127 0"
                           result="hardAlpha"/>
            <feOffset dy="2"/>
            <feGaussianBlur stdDeviation="2"/>
            <feComposite in2="hardAlpha" operator="out"/>
            <feColorMatrix type="matrix" values="0 0 0 0 0.054902 0 0 0 0 0.0705882 0 0 0 0 0.105882 0 0 0 0.5 0"/>
            <feBlend mode="normal" in2="BackgroundImageFix" result="effect1_dropShadow_1_1151"/>
            <feBlend mode="normal" in="SourceGraphic" in2="effect1_dropShadow_1_1151" result="shape"/>
        </filter>
        <linearGradient id="paint0_linear_1_1151" x1="29" y1="2" x2="29" y2="54" gradientUnits="userSpaceOnUse">
            <stop stop-color="#232323"/>
            <stop offset="1"/>
        </linearGradient>
        <linearGradient id="paint1_linear_1_1151" x1="4.00388" y1="28.0042" x2="54.0039" y2="28.0042"
                        gradientUnits="userSpaceOnUse">
            <stop stop-color="#3B82F6"/>
            <stop offset="1" stop-color="#2563EB"/>
        </linearGradient>
        <linearGradient id="paint2_linear_1_1151" x1="29" y1="2" x2="29" y2="54" gradientUnits="userSpaceOnUse">
            <stop stop-color="#3E6FF3"/>
            <stop offset="1" stop-color="#3E6FF3" stop-opacity="0"/>
        </linearGradient>
    </defs>
</svg>
