<svg width="58" height="58" viewBox="0 0 58 58" fill="none" xmlns="http://www.w3.org/2000/svg">
<g filter="url(#filter0_d_1_1158)">
<rect x="4" y="2" width="50" height="50" rx="8" fill="url(#paint0_linear_1_1158)"/>
<rect x="4" y="2" width="50" height="50" rx="8" fill="url(#paint1_linear_1_1158)"/>
<rect x="4.5" y="2.5" width="49" height="49" rx="7.5" stroke="url(#paint2_linear_1_1158)" stroke-linecap="round"/>
<path d="M45.6666 43.6666H12.3333" stroke="white" stroke-width="2.5" stroke-linecap="round"/>
<path d="M12.3333 25.3333L25.8764 14.4988C27.7026 13.038 30.2973 13.038 32.1234 14.4988L45.6666 25.3333" stroke="white" stroke-width="2.5" stroke-linecap="round"/>
<path d="M34.8333 16.1667V12.8333C34.8333 12.3731 35.2064 12 35.6666 12H39.8333C40.2934 12 40.6666 12.3731 40.6666 12.8333V21.1667" stroke="white" stroke-width="2.5" stroke-linecap="round"/>
<path d="M15.6667 43.6667V22.8334" stroke="white" stroke-width="2.5" stroke-linecap="round"/>
<path d="M42.3333 43.6667V22.8334" stroke="white" stroke-width="2.5" stroke-linecap="round"/>
<path d="M34 43.6667V35.3334C34 32.9764 34 31.7979 33.2678 31.0655C32.5355 30.3334 31.357 30.3334 29 30.3334C26.643 30.3334 25.4645 30.3334 24.7322 31.0655C24 31.7979 24 32.9764 24 35.3334V43.6667" stroke="white" stroke-width="2.5"/>
<path d="M32.3334 22.8333C32.3334 24.6743 30.8411 26.1667 29.0001 26.1667C27.1591 26.1667 25.6667 24.6743 25.6667 22.8333C25.6667 20.9924 27.1591 19.5 29.0001 19.5C30.8411 19.5 32.3334 20.9924 32.3334 22.8333Z" stroke="white" stroke-width="2.5"/>
</g>
<defs>
<filter id="filter0_d_1_1158" x="0" y="0" width="58" height="58" filterUnits="userSpaceOnUse" color-interpolation-filters="sRGB">
<feFlood flood-opacity="0" result="BackgroundImageFix"/>
<feColorMatrix in="SourceAlpha" type="matrix" values="0 0 0 0 0 0 0 0 0 0 0 0 0 0 0 0 0 0 127 0" result="hardAlpha"/>
<feOffset dy="2"/>
<feGaussianBlur stdDeviation="2"/>
<feComposite in2="hardAlpha" operator="out"/>
<feColorMatrix type="matrix" values="0 0 0 0 0.054902 0 0 0 0 0.0705882 0 0 0 0 0.105882 0 0 0 0.5 0"/>
<feBlend mode="normal" in2="BackgroundImageFix" result="effect1_dropShadow_1_1158"/>
<feBlend mode="normal" in="SourceGraphic" in2="effect1_dropShadow_1_1158" result="shape"/>
</filter>
<linearGradient id="paint0_linear_1_1158" x1="29" y1="2" x2="29" y2="52" gradientUnits="userSpaceOnUse">
<stop stop-color="#232323"/>
<stop offset="1"/>
</linearGradient>
<linearGradient id="paint1_linear_1_1158" x1="4.00388" y1="27.0041" x2="54.0039" y2="27.0041" gradientUnits="userSpaceOnUse">
<stop stop-color="#3B82F6"/>
<stop offset="1" stop-color="#2563EB"/>
</linearGradient>
<linearGradient id="paint2_linear_1_1158" x1="29" y1="2" x2="29" y2="52" gradientUnits="userSpaceOnUse">
<stop stop-color="#3E6FF3"/>
<stop offset="1" stop-color="#3E6FF3" stop-opacity="0"/>
</linearGradient>
</defs>
</svg>
