<svg width="58" height="58" viewBox="0 0 58 58" fill="none" xmlns="http://www.w3.org/2000/svg">
<g filter="url(#filter0_d_1_1172)">
<rect x="4" y="2" width="50" height="50" rx="8" fill="url(#paint0_linear_1_1172)"/>
<rect x="4" y="2" width="50" height="50" rx="8" fill="url(#paint1_linear_1_1172)"/>
<rect x="4.5" y="2.5" width="49" height="49" rx="7.5" stroke="url(#paint2_linear_1_1172)" stroke-linecap="round"/>
<path d="M42.3333 8.66667C42.3333 7.74619 43.0795 7 44 7C44.9205 7 45.6667 7.74619 45.6667 8.66667V10.3333H47.3333C48.2538 10.3333 49 11.0795 49 12C49 12.9205 48.2538 13.6667 47.3333 13.6667H45.6667V15.3333C45.6667 16.2538 44.9205 17 44 17C43.0795 17 42.3333 16.2538 42.3333 15.3333V13.6667H40.6667C39.7462 13.6667 39 12.9205 39 12C39 11.0795 39.7462 10.3333 40.6667 10.3333H42.3333V8.66667Z" fill="white"/>
<path d="M44.3225 20.4577C45.1692 20.0962 46.1615 20.4856 46.4445 21.3615C47.5749 24.858 47.6319 28.6276 46.587 32.1773C45.3845 36.262 42.7979 39.8006 39.2709 42.1861C35.7439 44.5715 31.4965 45.655 27.2579 45.2503C23.0193 44.8458 19.0536 42.9785 16.0416 39.969C13.0296 36.9595 11.159 32.9953 10.7509 28.757C10.3429 24.5186 11.4228 20.2704 13.8053 16.7415C16.1878 13.2125 19.7244 10.6229 23.808 9.41713C27.3569 8.36925 31.1264 8.42323 34.6239 9.55057C35.5 9.83295 35.8902 10.825 35.5295 11.6718C35.1687 12.5187 34.1892 12.9082 33.3076 12.6437C30.5306 11.8104 27.5587 11.7971 24.7552 12.6249C21.4166 13.6107 18.5253 15.7279 16.5774 18.613C14.6295 21.4981 13.7466 24.9713 14.0802 28.4365C14.4139 31.9015 15.9432 35.1425 18.4057 37.603C20.8682 40.0635 24.1104 41.59 27.5757 41.9208C31.041 42.2515 34.5135 41.3658 37.397 39.4155C40.2805 37.4653 42.3954 34.5721 43.3784 31.2328C44.2039 28.4286 44.1882 25.4566 43.3526 22.6804C43.0874 21.799 43.476 20.8191 44.3225 20.4577Z" fill="white"/>
<path d="M21.8509 22.2412L21.1574 22.5879C20.1662 23.0835 19 22.3628 19 21.2546C19 20.69 19.319 20.1738 19.824 19.9213L21.9814 18.8426C22.2128 18.7269 22.468 18.6666 22.7268 18.6666H24C24.9205 18.6666 25.6667 19.4128 25.6667 20.3333V33.6666C25.6667 34.5871 24.9205 35.3333 24 35.3333C23.0795 35.3333 22.3333 34.5871 22.3333 33.6666V22.5393C22.3333 22.2915 22.0725 22.1303 21.8509 22.2412Z" fill="white"/>
<path fill-rule="evenodd" clip-rule="evenodd" d="M35.6667 18.6666C37.5077 18.6666 39 20.159 39 22V32C39 33.841 37.5077 35.3333 35.6667 35.3333H32.3333C30.4923 35.3333 29 33.841 29 32V22C29 20.159 30.4923 18.6666 32.3333 18.6666H35.6667ZM34 22C34.9205 22 35.6667 22.7462 35.6667 23.6666V30.3333C35.6667 31.2538 34.9205 32 34 32C33.0795 32 32.3333 31.2538 32.3333 30.3333V23.6666C32.3333 22.7462 33.0795 22 34 22Z" fill="white"/>
</g>
<defs>
<filter id="filter0_d_1_1172" x="0" y="0" width="58" height="58" filterUnits="userSpaceOnUse" color-interpolation-filters="sRGB">
<feFlood flood-opacity="0" result="BackgroundImageFix"/>
<feColorMatrix in="SourceAlpha" type="matrix" values="0 0 0 0 0 0 0 0 0 0 0 0 0 0 0 0 0 0 127 0" result="hardAlpha"/>
<feOffset dy="2"/>
<feGaussianBlur stdDeviation="2"/>
<feComposite in2="hardAlpha" operator="out"/>
<feColorMatrix type="matrix" values="0 0 0 0 0.054902 0 0 0 0 0.0705882 0 0 0 0 0.105882 0 0 0 0.5 0"/>
<feBlend mode="normal" in2="BackgroundImageFix" result="effect1_dropShadow_1_1172"/>
<feBlend mode="normal" in="SourceGraphic" in2="effect1_dropShadow_1_1172" result="shape"/>
</filter>
<linearGradient id="paint0_linear_1_1172" x1="29" y1="2" x2="29" y2="52" gradientUnits="userSpaceOnUse">
<stop stop-color="#232323"/>
<stop offset="1"/>
</linearGradient>
<linearGradient id="paint1_linear_1_1172" x1="4.00388" y1="27.0041" x2="54.0039" y2="27.0041" gradientUnits="userSpaceOnUse">
<stop stop-color="#3B82F6"/>
<stop offset="1" stop-color="#2563EB"/>
</linearGradient>
<linearGradient id="paint2_linear_1_1172" x1="29" y1="2" x2="29" y2="52" gradientUnits="userSpaceOnUse">
<stop stop-color="#3E6FF3"/>
<stop offset="1" stop-color="#3E6FF3" stop-opacity="0"/>
</linearGradient>
</defs>
</svg>
